<?xml version="1.0" encoding="UTF-8" standalone="no"?>
<!-- Created with Inkscape (http://www.inkscape.org/) -->

<svg
   width="210mm"
   height="297mm"
   viewBox="0 0 210 297"
   version="1.1"
   id="svg5"
   inkscape:version="1.2 (dc2aedaf03, 2022-05-15)"
   sodipodi:docname="sharp phone Icon.svg"
   xmlns:inkscape="http://www.inkscape.org/namespaces/inkscape"
   xmlns:sodipodi="http://sodipodi.sourceforge.net/DTD/sodipodi-0.dtd"
   xmlns="http://www.w3.org/2000/svg"
   xmlns:svg="http://www.w3.org/2000/svg">
  <sodipodi:namedview
     id="namedview7"
     pagecolor="#ffffff"
     bordercolor="#000000"
     borderopacity="0.25"
     inkscape:showpageshadow="2"
     inkscape:pageopacity="0.0"
     inkscape:pagecheckerboard="0"
     inkscape:deskcolor="#d1d1d1"
     inkscape:document-units="mm"
     showgrid="false"
     inkscape:zoom="1"
     inkscape:cx="77"
     inkscape:cy="405.5"
     inkscape:window-width="1920"
     inkscape:window-height="991"
     inkscape:window-x="-9"
     inkscape:window-y="-9"
     inkscape:window-maximized="1"
     inkscape:current-layer="g6374" />
  <defs
     id="defs2" />
  <g
     inkscape:label="Layer 1"
     inkscape:groupmode="layer"
     id="layer1">
    <g
       id="g6374"
       transform="rotate(-59.842491,99.483335,93.133325)">
      <path
         id="path4174"
         style="opacity:1;fill:#000000;stroke-width:0.265;stroke-dasharray:none"
         d="M 133.61239,73.833254 C 133.19607,73.107631 62.113741,31.810143 61.277183,31.807868 c -0.836565,-0.0023 -72.142156,40.907453 -72.562408,41.630802 -0.420253,0.723348 -0.643781,82.93039 -0.227468,83.65602 0.416311,0.72562 71.498376,42.02312 72.33494,42.02539 0.836561,0.002 72.142423,-40.90746 72.562673,-41.63081 0.42025,-0.72335 0.64379,-82.930394 0.22747,-83.656016 z m -3.69232,1.709623 c 0.39361,0.691199 0.18264,78.998883 -0.2147,79.687913 -0.39733,0.68903 -67.814922,39.65851 -68.605871,39.65635 -0.79095,-0.002 -67.9970338,-39.3401 -68.3906455,-40.0313 -0.3936108,-0.6912 -0.1826348,-78.998884 0.2147019,-79.687916 0.3973377,-0.689032 67.8149176,-39.658063 68.6058666,-39.655896 0.790949,0.0022 67.997028,39.339649 68.390648,40.030849 z m -17.65008,20.47803 -6.02559,1.136658 a 5.7410584,22.755591 71.176 0 0 -16.312109,3.502255 l -4.5e-4,2.6e-4 a 5.7410584,22.755591 71.176 0 0 -16.046195,7.55399 l -6.217689,1.79151 2.719568,9.44005 0.1301,-0.0374 a 27.464804,22.940372 87.54131 0 0 2.157295,5.66625 c -7.713031,0.28154 -16.094926,0.13997 -23.826455,-0.38901 a 22.953172,27.449487 2.7789864 0 0 1.823402,-4.83363 22.953172,27.449487 2.7789864 0 0 0.406343,-1.67883 l 2.432904,-7.75408 -8.024858,-2.51823 A 22.845536,5.7184556 21.410425 0 0 32.054632,101.26124 22.845536,5.7184556 21.410425 0 0 17.451019,97.209769 l 0.0019,-0.0059 -7.6076047,-2.264035 -1.3056211,4.38758 a 22.953172,27.449487 2.7789864 0 0 -1.3570981,3.781556 22.953172,27.449487 2.7789864 0 0 14.3591669,34.50303 22.953172,27.449487 2.7789864 0 0 5.398225,1.22643 c 6.184507,1.21547 19.036146,3.36961 34.729517,3.8957 18.476424,0.61939 30.725435,-3.14015 34.298329,-4.41033 a 27.464804,22.940372 87.54131 0 0 2.807138,-0.71299 27.464804,22.940372 87.54131 0 0 15.511529,-33.81642 27.464804,22.940372 87.54131 0 0 -1.31842,-4.074384 l -0.0708,-0.374848 a 5.7410584,22.755591 71.176 0 0 -0.0157,-0.309995 5.7410584,22.755591 71.176 0 0 -0.0698,-0.145898 z"
         inkscape:export-filename="path4174.svg"
         inkscape:export-xdpi="96"
         inkscape:export-ydpi="96" />
    </g>
  </g>
</svg>
